<svg width="1394" height="410" viewBox="0 0 1394 410" fill="none" xmlns="http://www.w3.org/2000/svg">
<g filter="url(#filter0_dd_401_1781)">
<rect x="82" y="55" width="1230" height="246" rx="46" fill="white"/>
<g clip-path="url(#clip0_401_1781)">
<path d="M268.601 184.266L216.79 128.148C213.885 125.002 209.551 123.612 205.359 124.467L199.21 125.728L176.552 130.367L176.112 130.455C175.889 130.5 175.67 130.552 175.454 130.61C175.341 130.64 175.225 130.674 175.109 130.709C172.7 131.418 170.6 132.842 169.061 134.752C168.066 135.984 167.302 137.418 166.84 138.992L158.387 167.845C157.182 171.964 158.221 176.416 161.135 179.571L212.926 235.667C215.571 238.53 219.13 240.039 222.735 240.166C225.676 240.273 228.649 239.458 231.187 237.703C231.727 237.33 232.249 236.914 232.749 236.456L237.37 232.188L267.808 204.086C273.501 198.831 273.855 189.956 268.601 184.266ZM189.471 160.922C189.353 161.116 189.237 161.302 189.113 161.482C189.061 161.562 189.002 161.645 188.944 161.719C188.757 161.968 188.556 162.206 188.346 162.428C188.275 162.505 188.207 162.579 188.133 162.647C188.062 162.725 187.985 162.797 187.91 162.861C185.362 165.193 181.502 165.723 178.349 163.903C174.45 161.649 173.117 156.675 175.368 152.78C177.417 149.227 181.733 147.806 185.437 149.291C185.685 149.39 185.936 149.503 186.184 149.632C186.284 149.69 186.386 149.74 186.491 149.8C190.384 152.048 191.717 157.022 189.471 160.922Z" fill="#E8E8E8"/>
<path d="M212.926 235.667C215.571 238.53 219.13 240.039 222.735 240.166C225.676 240.273 228.649 239.458 231.187 237.703C231.727 237.33 232.249 236.914 232.749 236.456L237.37 232.188L267.808 204.086C273.501 198.831 273.855 189.956 268.601 184.266L244.397 158.05L214.405 140.734C213.305 139.955 212.071 139.348 210.738 138.961L204.706 137.215L182.061 130.661C180.204 130.124 178.285 130.048 176.45 130.387L176.143 130.449C176.049 130.469 175.955 130.492 175.861 130.514C175.741 130.541 175.621 130.567 175.504 130.598C175.293 130.654 175.084 130.72 174.876 130.787C174.792 130.814 174.708 130.843 174.625 130.872C172.86 131.49 171.229 132.511 169.882 133.904L169.058 134.757C168.064 135.987 167.301 137.42 166.84 138.992L158.387 167.845C157.182 171.964 158.22 176.416 161.135 179.571L212.926 235.667ZM175.368 152.78C177.417 149.227 181.733 147.805 185.437 149.291C185.685 149.39 185.936 149.503 186.184 149.632C186.284 149.69 186.386 149.74 186.491 149.8C190.384 152.048 191.717 157.022 189.471 160.922C189.353 161.116 189.237 161.302 189.113 161.482C189.061 161.562 189.002 161.645 188.944 161.719C188.757 161.968 188.556 162.206 188.346 162.428C188.275 162.505 188.207 162.579 188.133 162.647C188.062 162.725 187.985 162.797 187.91 162.861C185.362 165.193 181.502 165.723 178.349 163.903C174.45 161.649 173.117 156.675 175.368 152.78Z" fill="url(#paint0_linear_401_1781)"/>
<path d="M217.048 144.519L211.673 141.271L191.497 129.08C187.624 126.741 182.774 126.733 178.893 129.06L153.11 144.527C149.429 146.734 147.175 150.71 147.175 155.004V231.354C147.175 239.1 153.454 245.379 161.204 245.379H208.922C216.668 245.379 222.947 239.1 222.947 231.354V154.976C222.947 150.694 220.708 146.734 217.048 144.519ZM179.306 160.226C176.126 157.042 176.126 151.892 179.306 148.712C182.205 145.813 186.743 145.557 189.935 147.947C190.151 148.107 190.363 148.284 190.568 148.472C190.652 148.552 190.736 148.628 190.82 148.712C194 151.892 194 157.042 190.82 160.226C190.66 160.382 190.499 160.535 190.331 160.675C190.259 160.739 190.183 160.803 190.107 160.859C189.863 161.052 189.607 161.232 189.346 161.392C189.258 161.448 189.17 161.5 189.082 161.548C188.994 161.604 188.902 161.652 188.814 161.696C185.746 163.29 181.881 162.801 179.306 160.226Z" fill="#FDC347"/>
<path d="M222.947 231.354C222.947 231.354 222.947 231.017 222.947 230.394L175.9 183.358C174.074 181.898 171.658 181.167 168.649 181.167C162.039 181.167 158.734 184.212 158.734 190.302V201.293C158.734 204.59 159.712 206.986 161.649 208.498L198.531 245.38H208.922C216.668 245.379 222.947 239.1 222.947 231.354Z" fill="url(#paint1_linear_401_1781)"/>
<path d="M200.649 179.088C200 178.543 199.278 178.271 198.48 178.271C197.393 178.271 196.653 178.716 196.258 179.608L169.094 234.174C168.897 234.521 168.799 234.892 168.799 235.288C168.799 235.981 169.072 236.612 169.621 237.182L177.819 245.379H208.922C216.668 245.379 222.947 239.1 222.947 231.354C222.947 231.354 222.947 221.394 222.947 208.987V201.495L200.649 179.088Z" fill="url(#paint2_linear_401_1781)"/>
<path d="M208.65 208.385C206.825 206.925 204.408 206.194 201.399 206.194C194.79 206.194 191.485 209.239 191.485 215.329V226.32C191.485 229.616 192.462 232.013 194.399 233.525L206.254 245.379H208.922C216.667 245.379 222.947 239.1 222.947 231.354C222.947 231.354 222.947 227.963 222.947 222.678L208.65 208.385Z" fill="url(#paint3_linear_401_1781)"/>
<path d="M158.734 201.293V190.302C158.734 184.212 162.039 181.167 168.649 181.167C171.658 181.167 174.075 181.898 175.9 183.358C177.724 184.819 178.637 187.134 178.637 190.301V201.292C178.637 204.461 177.724 206.776 175.9 208.236C174.074 209.697 171.658 210.427 168.649 210.427C162.039 210.427 158.734 207.382 158.734 201.293ZM164.007 201.169C164.007 204.024 165.554 205.452 168.649 205.452C171.792 205.452 173.364 204.024 173.364 201.169V190.426C173.364 187.571 171.792 186.143 168.649 186.143C165.554 186.143 164.007 187.571 164.007 190.426C164.007 190.426 164.007 201.169 164.007 201.169ZM168.799 235.288C168.799 234.892 168.897 234.521 169.094 234.174L196.259 179.608C196.653 178.716 197.394 178.271 198.48 178.271C199.278 178.271 200.001 178.543 200.65 179.088C201.298 179.633 201.623 180.301 201.623 181.093C201.623 181.49 201.549 181.885 201.401 182.281L174.235 236.625C173.79 237.565 172.951 238.036 171.718 238.036C170.869 238.036 170.17 237.75 169.621 237.182C169.073 236.612 168.799 235.981 168.799 235.288ZM191.485 226.473V215.398C191.485 209.262 194.79 206.194 201.4 206.194C204.408 206.194 206.826 206.931 208.651 208.402C210.475 209.874 211.388 212.206 211.388 215.398V226.473C211.388 229.666 210.475 231.998 208.651 233.47C206.825 234.941 204.408 235.677 201.4 235.677C194.79 235.677 191.485 232.609 191.485 226.473ZM196.758 226.37C196.758 229.257 198.305 230.701 201.399 230.701C204.542 230.701 206.115 229.258 206.115 226.37V215.501C206.115 212.614 204.542 211.169 201.399 211.169C198.305 211.169 196.758 212.614 196.758 215.501V226.37Z" fill="url(#paint4_linear_401_1781)"/>
<path d="M222.947 154.975V180.938L191.483 149.474C191.28 149.211 191.06 148.954 190.822 148.713C190.736 148.627 190.651 148.553 190.569 148.471C190.512 148.417 190.455 148.367 190.395 148.321C190.246 148.186 190.089 148.062 189.936 147.948C186.892 145.669 182.628 145.793 179.727 148.325V128.603C183.08 126.932 187.017 126.893 190.395 128.489C190.768 128.664 191.138 128.863 191.497 129.08L211.675 141.27L217.048 144.52C220.707 146.732 222.947 150.693 222.947 154.975Z" fill="url(#paint5_linear_401_1781)"/>
<path d="M185.061 158.019C182.115 158.019 179.727 155.631 179.727 152.685V115.334C179.727 112.388 182.115 110 185.061 110C188.007 110 190.395 112.388 190.395 115.334V152.685C190.395 155.631 188.007 158.019 185.061 158.019Z" fill="url(#paint6_linear_401_1781)"/>
</g>
<path d="M305.625 168H312.485C319.135 168 323.72 164.395 323.72 156.52C323.72 148.61 319.135 145.215 312.17 145.215H305.625V168ZM311.085 163.625V149.59H311.855C315.53 149.59 318.155 151.095 318.155 156.52C318.155 161.91 315.53 163.625 311.855 163.625H311.085ZM331.9 168.42C333.86 168.42 335.435 167.545 336.87 166.25H337.01L337.395 168H341.805V158.13C341.805 152.67 339.285 150.185 334.805 150.185C332.075 150.185 329.59 151.06 327.315 152.46L329.205 155.96C330.955 154.98 332.355 154.49 333.755 154.49C335.54 154.49 336.275 155.33 336.415 156.765C329.555 157.465 326.72 159.46 326.72 163.135C326.72 166.04 328.715 168.42 331.9 168.42ZM333.755 164.22C332.565 164.22 331.9 163.73 331.9 162.715C331.9 161.49 332.95 160.545 336.415 160.09V162.855C335.575 163.695 334.84 164.22 333.755 164.22ZM346.05 168H351.44V150.605H346.05V168ZM348.745 148.155C350.53 148.155 351.79 147.07 351.79 145.355C351.79 143.675 350.53 142.59 348.745 142.59C346.96 142.59 345.7 143.675 345.7 145.355C345.7 147.07 346.96 148.155 348.745 148.155ZM360.794 168.42C361.984 168.42 362.894 168.21 363.489 167.965L362.859 163.975C362.579 164.045 362.439 164.045 362.229 164.045C361.809 164.045 361.249 163.695 361.249 162.575V143.535H355.859V162.365C355.859 166.005 357.084 168.42 360.794 168.42ZM368.146 174.72C372.311 174.72 374.166 172.515 375.881 168.035L381.866 150.605H376.686L374.691 157.815C374.236 159.46 373.886 161.105 373.501 162.75H373.361C372.906 161.035 372.521 159.425 372.031 157.815L369.651 150.605H364.226L370.911 167.51L370.666 168.35C370.246 169.61 369.406 170.485 367.726 170.485C367.376 170.485 367.131 170.45 366.571 170.31L365.626 174.3C366.326 174.58 367.026 174.72 368.146 174.72ZM305.625 210H312.485C319.135 210 323.72 206.395 323.72 198.52C323.72 190.61 319.135 187.215 312.17 187.215H305.625V210ZM311.085 205.625V191.59H311.855C315.53 191.59 318.155 193.095 318.155 198.52C318.155 203.91 315.53 205.625 311.855 205.625H311.085ZM327.49 210H332.88V192.605H327.49V210ZM330.185 190.155C331.97 190.155 333.23 189.07 333.23 187.355C333.23 185.675 331.97 184.59 330.185 184.59C328.4 184.59 327.14 185.675 327.14 187.355C327.14 189.07 328.4 190.155 330.185 190.155ZM342.515 210.42C347.24 210.42 349.76 207.935 349.76 204.75C349.76 201.88 347.66 200.305 345 199.465C342.795 198.765 341.815 198.345 341.815 197.435C341.815 196.665 342.41 196.175 343.67 196.175C344.86 196.175 346.155 196.525 347.415 197.435L349.725 194.39C348.22 193.13 346.05 192.185 343.495 192.185C339.435 192.185 336.775 194.39 336.775 197.68C336.775 200.375 338.875 201.95 341.36 202.86C343.215 203.56 344.685 204.015 344.685 205.065C344.685 205.905 344.09 206.43 342.62 206.43C341.255 206.43 339.68 206.01 338.07 204.75L335.795 207.795C337.545 209.51 340.205 210.42 342.515 210.42ZM360.585 210.42C362.44 210.42 364.645 209.895 366.325 208.355L364.225 204.96C363.35 205.625 362.37 206.045 361.215 206.045C359.08 206.045 357.47 204.19 357.47 201.285C357.47 198.415 358.975 196.525 361.39 196.525C362.16 196.525 362.825 196.77 363.63 197.365L366.15 194.04C364.855 192.92 363.21 192.185 361.075 192.185C356.245 192.185 351.94 195.51 351.94 201.285C351.94 207.06 355.685 210.42 360.585 210.42ZM375.86 210.42C380.305 210.42 384.4 207.06 384.4 201.285C384.4 195.51 380.305 192.185 375.86 192.185C371.45 192.185 367.355 195.51 367.355 201.285C367.355 207.06 371.45 210.42 375.86 210.42ZM375.86 206.045C373.83 206.045 372.885 204.19 372.885 201.285C372.885 198.415 373.83 196.525 375.86 196.525C377.89 196.525 378.835 198.415 378.835 201.285C378.835 204.19 377.89 206.045 375.86 206.045ZM393.067 210.42C395.412 210.42 397.057 209.335 398.492 207.62H398.632L399.017 210H403.427V192.605H398.002V204.015C397.057 205.31 396.322 205.8 395.097 205.8C393.697 205.8 393.067 205.1 393.067 202.685V192.605H387.642V203.385C387.642 207.725 389.252 210.42 393.067 210.42ZM407.847 210H413.237V198.345C414.322 197.365 415.057 196.77 416.282 196.77C417.682 196.77 418.312 197.505 418.312 199.92V210H423.737V199.22C423.737 194.88 422.127 192.185 418.347 192.185C415.967 192.185 414.217 193.375 412.782 194.775H412.642L412.257 192.605H407.847V210ZM434.803 210.42C436.518 210.42 437.848 210.07 438.758 209.72L437.918 205.94C437.463 206.115 436.868 206.185 436.308 206.185C435.013 206.185 434.103 205.45 434.103 203.49V196.84H438.198V192.605H434.103V187.285H429.623L428.993 192.605L426.333 192.78V196.84H428.678V203.56C428.678 207.655 430.463 210.42 434.803 210.42ZM446.421 210.42C451.146 210.42 453.666 207.935 453.666 204.75C453.666 201.88 451.566 200.305 448.906 199.465C446.701 198.765 445.721 198.345 445.721 197.435C445.721 196.665 446.316 196.175 447.576 196.175C448.766 196.175 450.061 196.525 451.321 197.435L453.631 194.39C452.126 193.13 449.956 192.185 447.401 192.185C443.341 192.185 440.681 194.39 440.681 197.68C440.681 200.375 442.781 201.95 445.266 202.86C447.121 203.56 448.591 204.015 448.591 205.065C448.591 205.905 447.996 206.43 446.526 206.43C445.161 206.43 443.586 206.01 441.976 204.75L439.701 207.795C441.451 209.51 444.111 210.42 446.421 210.42Z" fill="url(#paint7_linear_401_1781)"/>
<path fill-rule="evenodd" clip-rule="evenodd" d="M510 226V130H512V226H510Z" fill="#CFCFCF"/>
<path d="M581.864 198.177L568.01 231.797C565.885 236.954 567.336 246 570.288 246H699.712C702.672 246 704.119 236.914 701.978 231.769L687.983 198.127C686.881 195.477 685.415 194 683.891 194H585.976C584.443 194.001 582.968 195.497 581.864 198.177Z" fill="url(#paint8_linear_401_1781)"/>
<path d="M646.75 203.577L646.739 203.569H623.297C625.73 206.293 627.956 208.683 629.798 210.618L646.75 226.542H670.729L646.75 203.577Z" fill="url(#paint9_linear_401_1781)"/>
<path d="M635.018 110C611.851 110 593.07 128.799 593.07 151.987C593.07 170.065 618.56 198.818 629.798 210.618C632.641 213.603 637.396 213.603 640.238 210.618C651.479 198.818 676.97 170.065 676.97 151.987C676.969 128.799 658.188 110 635.018 110ZM635.018 167.959C626.205 167.959 619.061 160.808 619.061 151.988C619.061 143.167 626.206 136.016 635.018 136.016C643.831 136.016 650.975 143.167 650.975 151.988C650.975 160.808 643.831 167.959 635.018 167.959Z" fill="url(#paint10_linear_401_1781)"/>
<circle cx="635" cy="152.396" r="25" fill="white"/>
<path d="M635.018 127C621.012 127 609.658 138.365 609.658 152.383C609.658 166.402 621.012 177.767 635.018 177.767C649.024 177.767 660.378 166.402 660.378 152.383C660.378 138.365 649.023 127 635.018 127ZM635.018 168.355C626.205 168.355 619.061 161.204 619.061 152.383C619.061 143.563 626.205 136.412 635.018 136.412C643.83 136.412 650.975 143.563 650.975 152.383C650.975 161.204 643.83 168.355 635.018 168.355Z" fill="url(#paint11_linear_401_1781)"/>
<path d="M735.625 168H749.94V163.45H741.085V145.215H735.625V168ZM753.491 168H758.881V150.605H753.491V168ZM756.186 148.155C757.971 148.155 759.231 147.07 759.231 145.355C759.231 143.675 757.971 142.59 756.186 142.59C754.401 142.59 753.141 143.675 753.141 145.355C753.141 147.07 754.401 148.155 756.186 148.155ZM767.326 168H773.591L779.191 150.605H774.011L771.876 158.62C771.456 160.335 771.001 162.155 770.546 163.975H770.406C769.986 162.155 769.531 160.335 769.111 158.62L766.941 150.605H761.516L767.326 168ZM789.358 168.42C791.423 168.42 793.803 167.755 795.623 166.46L793.873 163.205C792.648 163.905 791.388 164.29 790.128 164.29C787.923 164.29 786.278 163.275 785.788 160.93H796.043C796.148 160.44 796.253 159.53 796.253 158.55C796.253 153.825 793.803 150.185 788.763 150.185C784.598 150.185 780.538 153.65 780.538 159.285C780.538 165.095 784.388 168.42 789.358 168.42ZM785.718 157.29C786.068 155.26 787.363 154.28 788.903 154.28C790.863 154.28 791.633 155.575 791.633 157.29H785.718ZM740.07 210H745.495V191.765H751.69V187.215H733.875V191.765H740.07V210ZM753.32 210H758.71V200.06C759.62 197.75 761.195 196.91 762.49 196.91C763.26 196.91 763.645 196.98 764.275 197.12L765.29 192.535C764.8 192.29 764.205 192.185 763.19 192.185C761.44 192.185 759.515 193.27 758.255 195.615H758.115L757.73 192.605H753.32V210ZM770.889 210.42C772.849 210.42 774.424 209.545 775.859 208.25H775.999L776.384 210H780.794V200.13C780.794 194.67 778.274 192.185 773.794 192.185C771.064 192.185 768.579 193.06 766.304 194.46L768.194 197.96C769.944 196.98 771.344 196.49 772.744 196.49C774.529 196.49 775.264 197.33 775.404 198.765C768.544 199.465 765.709 201.46 765.709 205.135C765.709 208.04 767.704 210.42 770.889 210.42ZM772.744 206.22C771.554 206.22 770.889 205.73 770.889 204.715C770.889 203.49 771.939 202.545 775.404 202.09V204.855C774.564 205.695 773.829 206.22 772.744 206.22ZM792.704 210.42C794.559 210.42 796.764 209.895 798.444 208.355L796.344 204.96C795.469 205.625 794.489 206.045 793.334 206.045C791.199 206.045 789.589 204.19 789.589 201.285C789.589 198.415 791.094 196.525 793.509 196.525C794.279 196.525 794.944 196.77 795.749 197.365L798.269 194.04C796.974 192.92 795.329 192.185 793.194 192.185C788.364 192.185 784.059 195.51 784.059 201.285C784.059 207.06 787.804 210.42 792.704 210.42ZM801.445 210H806.835V192.605H801.445V210ZM804.14 190.155C805.925 190.155 807.185 189.07 807.185 187.355C807.185 185.675 805.925 184.59 804.14 184.59C802.355 184.59 801.095 185.675 801.095 187.355C801.095 189.07 802.355 190.155 804.14 190.155ZM811.255 210H816.645V198.345C817.73 197.365 818.465 196.77 819.69 196.77C821.09 196.77 821.72 197.505 821.72 199.92V210H827.145V199.22C827.145 194.88 825.535 192.185 821.755 192.185C819.375 192.185 817.625 193.375 816.19 194.775H816.05L815.665 192.605H811.255V210ZM837.617 217.315C843.672 217.315 847.487 214.725 847.487 211.05C847.487 207.9 845.072 206.605 840.767 206.605H838.002C836.147 206.605 835.447 206.22 835.447 205.38C835.447 204.82 835.622 204.54 836.007 204.19C836.777 204.4 837.477 204.505 838.072 204.505C841.922 204.505 845.002 202.72 845.002 198.66C845.002 197.82 844.757 197.015 844.477 196.525H847.207V192.605H840.802C839.997 192.325 839.052 192.185 838.072 192.185C834.292 192.185 830.792 194.25 830.792 198.485C830.792 200.515 831.912 202.125 833.137 202.965V203.105C832.017 203.91 831.212 205.17 831.212 206.395C831.212 207.83 831.877 208.74 832.787 209.37V209.51C831.177 210.35 830.337 211.505 830.337 212.94C830.337 216.055 833.592 217.315 837.617 217.315ZM838.072 201.25C836.812 201.25 835.867 200.305 835.867 198.485C835.867 196.7 836.777 195.79 838.072 195.79C839.367 195.79 840.277 196.7 840.277 198.485C840.277 200.305 839.367 201.25 838.072 201.25ZM838.492 213.955C836.252 213.955 834.782 213.325 834.782 212.065C834.782 211.505 835.062 211.015 835.622 210.525C836.147 210.665 836.812 210.735 838.072 210.735H839.752C841.397 210.735 842.307 210.945 842.307 211.995C842.307 213.115 840.697 213.955 838.492 213.955Z" fill="url(#paint12_linear_401_1781)"/>
<path fill-rule="evenodd" clip-rule="evenodd" d="M904 226V130H906V226H904Z" fill="#CFCFCF"/>
<path d="M1076 178.5C1076 183.953 1075.17 189.215 1073.62 194.158C1073.45 194.71 1073.27 195.255 1073.08 195.797C1072.47 197.564 1071.76 199.286 1070.96 200.961C1070.3 202.374 1069.57 203.75 1068.78 205.087C1067.2 207.77 1065.39 210.299 1063.38 212.648C1061.27 215.108 1058.94 217.372 1056.41 219.408C1047.41 226.658 1035.96 231 1023.5 231C994.506 231 971 207.494 971 178.5C971 149.506 994.505 126 1023.5 126C1052.49 126 1076 149.506 1076 178.5Z" fill="url(#paint13_linear_401_1781)"/>
<path d="M1023.72 143C1021.67 143 1020 173.023 1020 175.1C1020 176.424 1020.68 177.586 1021.7 178.256L1060.06 217C1066.53 210.709 1071.4 202.753 1074 193.815C1065.44 185.226 1023.72 143 1023.72 143Z" fill="url(#paint14_linear_401_1781)"/>
<path d="M1024 182C1025.66 182 1027 180.657 1027 179C1027 177.343 1025.66 176 1024 176C1022.34 176 1021 177.343 1021 179C1021 180.657 1022.34 182 1024 182Z" fill="url(#paint15_linear_401_1781)"/>
<path d="M1023.5 137C1023.09 137 1022.71 137.144 1022.44 137.377C1022.17 137.609 1022 137.931 1022 138.286V147.714C1022 147.98 1022.09 148.228 1022.26 148.433C1022.36 148.57 1022.5 148.688 1022.66 148.78C1022.74 148.827 1022.83 148.866 1022.92 148.899C1023.1 148.964 1023.29 149 1023.5 149C1023.91 149 1024.29 148.856 1024.56 148.623C1024.83 148.391 1025 148.069 1025 147.714V138.286C1025 137.576 1024.33 137 1023.5 137Z" fill="url(#paint16_linear_401_1781)"/>
<path d="M1023.5 208C1022.67 208 1022 208.624 1022 209.393V219.607C1022 219.74 1022.03 219.866 1022.06 219.987C1022.24 220.57 1022.81 221 1023.5 221C1023.71 221 1023.9 220.961 1024.08 220.89C1024.62 220.679 1025 220.184 1025 219.607V209.393C1025 208.624 1024.33 208 1023.5 208Z" fill="url(#paint17_linear_401_1781)"/>
<path d="M1064.61 177H1054.39C1053.62 177 1053 177.672 1053 178.5C1053 179.328 1053.62 180 1054.39 180H1064.61C1065.38 180 1066 179.328 1066 178.5C1066 177.672 1065.38 177 1064.61 177Z" fill="url(#paint18_linear_401_1781)"/>
<path d="M994 178.5C994 178.189 993.919 177.9 993.781 177.661C993.688 177.501 993.57 177.364 993.433 177.256C993.228 177.094 992.981 177 992.714 177H983.286C982.931 177 982.609 177.168 982.377 177.439C982.144 177.711 982 178.086 982 178.5C982 179.329 982.576 180 983.286 180H992.714C993.069 180 993.39 179.832 993.623 179.561C993.856 179.289 994 178.914 994 178.5Z" fill="url(#paint19_linear_401_1781)"/>
<path d="M1046.38 157.633L1053.59 151.138C1054.14 150.649 1054.14 149.856 1053.59 149.367C1053.05 148.878 1052.17 148.878 1051.62 149.367L1044.41 155.862C1043.86 156.351 1043.86 157.144 1044.41 157.633C1044.95 158.122 1045.83 158.122 1046.38 157.633Z" fill="url(#paint20_linear_401_1781)"/>
<path d="M1002.63 199.408C1002.14 198.864 1001.35 198.864 1000.86 199.408L994.366 206.624C993.944 207.093 993.888 207.811 994.194 208.35C994.232 208.418 994.279 208.482 994.329 208.543C994.342 208.559 994.352 208.577 994.366 208.592C994.604 208.858 994.915 208.991 995.228 208.997C995.236 208.998 995.244 209 995.251 209C995.572 209 995.892 208.864 996.137 208.592L1002.63 201.376C1002.82 201.172 1002.93 200.921 1002.98 200.658C1002.99 200.57 1003 200.481 1003 200.392C1003 200.035 1002.88 199.679 1002.63 199.408Z" fill="url(#paint21_linear_401_1781)"/>
<path d="M1053.6 206.626L1046.38 199.405C1046.21 199.235 1046 199.124 1045.79 199.06C1045.58 198.999 1045.36 198.983 1045.15 199.019C1044.88 199.067 1044.62 199.194 1044.41 199.404C1043.86 199.948 1043.86 200.83 1044.41 201.373L1051.63 208.595C1051.71 208.676 1051.8 208.741 1051.89 208.799C1052.43 209.122 1053.13 209.057 1053.6 208.595C1053.82 208.373 1053.95 208.094 1053.99 207.806C1054.04 207.388 1053.92 206.948 1053.6 206.626Z" fill="url(#paint22_linear_401_1781)"/>
<path d="M996.138 149.367C995.894 149.122 995.573 149 995.253 149C995.173 149 995.092 149.008 995.013 149.023C994.776 149.069 994.55 149.183 994.367 149.367C994.122 149.611 994 149.932 994 150.253C994 150.333 994.008 150.413 994.023 150.492C994.069 150.729 994.183 150.955 994.367 151.138L1000.86 157.633C1000.87 157.644 1000.89 157.652 1000.9 157.662C1001.01 157.769 1001.14 157.853 1001.28 157.908C1001.43 157.97 1001.59 158 1001.75 158C1002.07 158 1002.39 157.878 1002.63 157.633C1002.82 157.45 1002.93 157.223 1002.98 156.987C1002.99 156.908 1003 156.828 1003 156.747C1003 156.427 1002.88 156.106 1002.63 155.862L996.138 149.367Z" fill="url(#paint23_linear_401_1781)"/>
<path d="M1071 201.393C1070.34 202.818 1069.61 204.206 1068.82 205.555C1067.25 208.262 1065.45 210.813 1063.43 213.181C1061.33 215.663 1059.01 217.946 1056.49 220L1019.66 182.794C1017.45 180.554 1017.45 176.923 1019.66 174.683C1019.76 174.584 1019.86 174.491 1019.96 174.401C1022.09 172.533 1025.26 172.533 1027.38 174.401C1027.48 174.491 1027.58 174.584 1027.68 174.683C1027.78 174.782 1027.88 174.888 1027.96 174.995H1027.97C1028.03 174.998 1028.1 175.001 1028.17 175.004C1028.29 175.014 1028.43 175.021 1028.58 175.031C1029.35 175.081 1030.41 175.163 1031.64 175.276C1032 175.309 1032.39 175.346 1032.78 175.385C1033.07 175.415 1033.36 175.442 1033.66 175.475C1033.91 175.501 1034.17 175.528 1034.43 175.554C1034.62 175.574 1034.81 175.597 1035 175.617C1035.31 175.65 1035.62 175.687 1035.93 175.723C1037.41 175.896 1038.94 176.091 1040.41 176.31C1040.61 176.34 1040.81 176.37 1041 176.403C1041.03 176.406 1041.07 176.409 1041.1 176.416C1041.32 176.452 1041.55 176.489 1041.77 176.522C1042 176.562 1042.22 176.598 1042.43 176.635C1042.58 176.661 1042.72 176.685 1042.86 176.711C1043.08 176.751 1043.3 176.79 1043.52 176.834C1043.63 176.853 1043.74 176.873 1043.84 176.893C1044.06 176.94 1044.28 176.983 1044.49 177.026C1044.55 177.039 1044.61 177.052 1044.68 177.066C1044.76 177.086 1044.85 177.106 1044.93 177.122C1044.97 177.129 1045.01 177.139 1045.05 177.148C1045.17 177.178 1045.29 177.205 1045.4 177.231C1045.48 177.251 1045.56 177.271 1045.64 177.287C1045.94 177.367 1046.23 177.443 1046.5 177.519C1046.56 177.539 1046.62 177.559 1046.68 177.576C1046.73 177.589 1046.78 177.605 1046.82 177.619C1046.89 177.642 1046.96 177.665 1047.02 177.685C1047.04 177.692 1047.07 177.698 1047.09 177.708C1047.22 177.755 1047.34 177.798 1047.46 177.844C1047.47 177.847 1047.48 177.854 1047.49 177.857C1047.55 177.884 1047.61 177.91 1047.67 177.934C1047.81 177.997 1047.94 178.056 1048.05 178.119C1048.1 178.149 1048.14 178.176 1048.18 178.202C1048.32 178.291 1048.43 178.381 1048.5 178.47C1048.52 178.493 1048.53 178.52 1048.55 178.543C1048.55 178.55 1048.55 178.553 1048.55 178.556C1048.57 178.586 1048.58 178.616 1048.59 178.649C1048.6 178.679 1048.6 178.709 1048.6 178.738L1071 201.393Z" fill="url(#paint24_linear_401_1781)"/>
<path d="M1027.73 183C1025.67 183 1024 181.209 1024 179C1024 176.791 1025.67 175 1027.73 175C1029.79 175 1049 176.791 1049 179C1049 181.209 1029.79 183 1027.73 183Z" fill="url(#paint25_linear_401_1781)"/>
<path d="M1028 175.225C1028 177.31 1026.21 179 1024 179C1021.79 179 1020 177.31 1020 175.225C1020 173.14 1021.79 143 1024 143C1026.21 143 1028 173.14 1028 175.225Z" fill="url(#paint26_linear_401_1781)"/>
<path d="M1023.5 184C1026.54 184 1029 181.538 1029 178.5C1029 175.462 1026.54 173 1023.5 173C1020.46 173 1018 175.462 1018 178.5C1018 181.538 1020.46 184 1023.5 184Z" fill="white"/>
<path d="M1092.57 169.739H1086.52H1086.24C1081.85 139.393 1055.59 116 1023.95 116C989.237 116 961 144.143 961 178.736C961 193.01 965.94 206.98 974.909 218.073C983.744 229 996.125 236.742 1009.77 239.873C1010.14 239.959 1010.52 240 1010.89 240C1013.14 240 1015.18 238.456 1015.7 236.174C1016.32 233.519 1014.65 230.872 1011.99 230.261C1000.5 227.623 990.065 221.097 982.615 211.885C974.949 202.403 970.897 190.941 970.897 178.736C970.897 149.582 994.694 125.864 1023.95 125.864C1050.12 125.864 1071.93 144.856 1076.22 169.739H1071C1067.06 169.739 1065.09 174.489 1067.87 177.267L1078.66 188.013C1080.38 189.735 1083.19 189.735 1084.91 188.013L1095.7 177.267C1098.48 174.489 1096.51 169.739 1092.57 169.739Z" fill="url(#paint27_linear_401_1781)"/>
<path d="M1139.01 163.975C1136.03 163.975 1134.14 161.245 1134.14 156.52C1134.14 152.075 1136.03 149.485 1139.01 149.485C1142.02 149.485 1143.87 152.075 1143.87 156.52C1143.87 161.245 1142.02 163.975 1139.01 163.975ZM1146.6 174.44C1148.42 174.44 1149.86 174.09 1150.73 173.635L1149.79 169.75C1149.09 169.96 1148.21 170.1 1147.23 170.1C1145.34 170.1 1143.31 169.54 1142.26 167.965C1146.64 166.635 1149.44 162.575 1149.44 156.52C1149.44 149.065 1145.2 144.795 1139.01 144.795C1132.81 144.795 1128.58 149.03 1128.58 156.52C1128.58 162.925 1131.73 167.125 1136.52 168.175C1138.2 171.815 1141.63 174.44 1146.6 174.44ZM1158.48 168.42C1160.83 168.42 1162.47 167.335 1163.91 165.62H1164.05L1164.43 168H1168.84V150.605H1163.42V162.015C1162.47 163.31 1161.74 163.8 1160.51 163.8C1159.11 163.8 1158.48 163.1 1158.48 160.685V150.605H1153.06V161.385C1153.06 165.725 1154.67 168.42 1158.48 168.42ZM1173.26 168H1178.65V150.605H1173.26V168ZM1175.96 148.155C1177.74 148.155 1179 147.07 1179 145.355C1179 143.675 1177.74 142.59 1175.96 142.59C1174.17 142.59 1172.91 143.675 1172.91 145.355C1172.91 147.07 1174.17 148.155 1175.96 148.155ZM1190.74 168.42C1192.59 168.42 1194.8 167.895 1196.48 166.355L1194.38 162.96C1193.5 163.625 1192.52 164.045 1191.37 164.045C1189.23 164.045 1187.62 162.19 1187.62 159.285C1187.62 156.415 1189.13 154.525 1191.54 154.525C1192.31 154.525 1192.98 154.77 1193.78 155.365L1196.3 152.04C1195.01 150.92 1193.36 150.185 1191.23 150.185C1186.4 150.185 1182.09 153.51 1182.09 159.285C1182.09 165.06 1185.84 168.42 1190.74 168.42ZM1199.48 168H1204.83V163.695L1206.83 161.385L1210.61 168H1216.49L1210.01 157.85L1216.07 150.605H1210.12L1204.94 157.185H1204.83V143.535H1199.48V168ZM1129.63 210H1136.49C1143.14 210 1147.72 206.395 1147.72 198.52C1147.72 190.61 1143.14 187.215 1136.17 187.215H1129.63V210ZM1135.09 205.625V191.59H1135.86C1139.53 191.59 1142.16 193.095 1142.16 198.52C1142.16 203.91 1139.53 205.625 1135.86 205.625H1135.09ZM1159.33 210.42C1161.4 210.42 1163.78 209.755 1165.6 208.46L1163.85 205.205C1162.62 205.905 1161.36 206.29 1160.1 206.29C1157.9 206.29 1156.25 205.275 1155.76 202.93H1166.02C1166.12 202.44 1166.23 201.53 1166.23 200.55C1166.23 195.825 1163.78 192.185 1158.74 192.185C1154.57 192.185 1150.51 195.65 1150.51 201.285C1150.51 207.095 1154.36 210.42 1159.33 210.42ZM1155.69 199.29C1156.04 197.26 1157.34 196.28 1158.88 196.28C1160.84 196.28 1161.61 197.575 1161.61 199.29H1155.69ZM1174.61 210.42C1175.8 210.42 1176.71 210.21 1177.3 209.965L1176.67 205.975C1176.39 206.045 1176.25 206.045 1176.04 206.045C1175.62 206.045 1175.06 205.695 1175.06 204.575V185.535H1169.67V204.365C1169.67 208.005 1170.9 210.42 1174.61 210.42ZM1179.83 210H1185.22V192.605H1179.83V210ZM1182.52 190.155C1184.31 190.155 1185.57 189.07 1185.57 187.355C1185.57 185.675 1184.31 184.59 1182.52 184.59C1180.74 184.59 1179.48 185.675 1179.48 187.355C1179.48 189.07 1180.74 190.155 1182.52 190.155ZM1193.66 210H1199.92L1205.52 192.605H1200.34L1198.21 200.62C1197.79 202.335 1197.33 204.155 1196.88 205.975H1196.74C1196.32 204.155 1195.86 202.335 1195.44 200.62L1193.27 192.605H1187.85L1193.66 210ZM1215.69 210.42C1217.76 210.42 1220.14 209.755 1221.96 208.46L1220.21 205.205C1218.98 205.905 1217.72 206.29 1216.46 206.29C1214.26 206.29 1212.61 205.275 1212.12 202.93H1222.38C1222.48 202.44 1222.59 201.53 1222.59 200.55C1222.59 195.825 1220.14 192.185 1215.1 192.185C1210.93 192.185 1206.87 195.65 1206.87 201.285C1206.87 207.095 1210.72 210.42 1215.69 210.42ZM1212.05 199.29C1212.4 197.26 1213.7 196.28 1215.24 196.28C1217.2 196.28 1217.97 197.575 1217.97 199.29H1212.05ZM1226.04 210H1231.43V200.06C1232.34 197.75 1233.91 196.91 1235.21 196.91C1235.98 196.91 1236.36 196.98 1236.99 197.12L1238.01 192.535C1237.52 192.29 1236.92 192.185 1235.91 192.185C1234.16 192.185 1232.23 193.27 1230.97 195.615H1230.83L1230.45 192.605H1226.04V210ZM1242.53 216.72C1246.69 216.72 1248.55 214.515 1250.26 210.035L1256.25 192.605H1251.07L1249.07 199.815C1248.62 201.46 1248.27 203.105 1247.88 204.75H1247.74C1247.29 203.035 1246.9 201.425 1246.41 199.815L1244.03 192.605H1238.61L1245.29 209.51L1245.05 210.35C1244.63 211.61 1243.79 212.485 1242.11 212.485C1241.76 212.485 1241.51 212.45 1240.95 212.31L1240.01 216.3C1240.71 216.58 1241.41 216.72 1242.53 216.72Z" fill="url(#paint28_linear_401_1781)"/>
</g>
<defs>
<filter id="filter0_dd_401_1781" x="0" y="0" width="1394" height="410" filterUnits="userSpaceOnUse" color-interpolation-filters="sRGB">
<feFlood flood-opacity="0" result="BackgroundImageFix"/>
<feColorMatrix in="SourceAlpha" type="matrix" values="0 0 0 0 0 0 0 0 0 0 0 0 0 0 0 0 0 0 127 0" result="hardAlpha"/>
<feOffset dy="27"/>
<feGaussianBlur stdDeviation="41"/>
<feColorMatrix type="matrix" values="0 0 0 0 1 0 0 0 0 0.680498 0 0 0 0 0 0 0 0 0.28 0"/>
<feBlend mode="normal" in2="BackgroundImageFix" result="effect1_dropShadow_401_1781"/>
<feColorMatrix in="SourceAlpha" type="matrix" values="0 0 0 0 0 0 0 0 0 0 0 0 0 0 0 0 0 0 127 0" result="hardAlpha"/>
<feOffset dy="14"/>
<feGaussianBlur stdDeviation="7.5"/>
<feColorMatrix type="matrix" values="0 0 0 0 1 0 0 0 0 0.680498 0 0 0 0 0 0 0 0 0.01 0"/>
<feBlend mode="normal" in2="effect1_dropShadow_401_1781" result="effect2_dropShadow_401_1781"/>
<feBlend mode="normal" in="SourceGraphic" in2="effect2_dropShadow_401_1781" result="shape"/>
</filter>
<linearGradient id="paint0_linear_401_1781" x1="199.502" y1="124.167" x2="259.935" y2="213.535" gradientUnits="userSpaceOnUse">
<stop stop-color="white"/>
<stop offset="1" stop-color="white" stop-opacity="0"/>
</linearGradient>
<linearGradient id="paint1_linear_401_1781" x1="187.295" y1="214.481" x2="165.05" y2="192.236" gradientUnits="userSpaceOnUse">
<stop stop-color="#FDC347" stop-opacity="0"/>
<stop offset="1" stop-color="#F59500"/>
</linearGradient>
<linearGradient id="paint2_linear_401_1781" x1="210.913" y1="233.915" x2="176.666" y2="199.668" gradientUnits="userSpaceOnUse">
<stop stop-color="#FDC347" stop-opacity="0"/>
<stop offset="1" stop-color="#F59500"/>
</linearGradient>
<linearGradient id="paint3_linear_401_1781" x1="226.497" y1="245.965" x2="192.599" y2="212.065" gradientUnits="userSpaceOnUse">
<stop stop-color="#FDC347" stop-opacity="0"/>
<stop offset="1" stop-color="#F59500"/>
</linearGradient>
<linearGradient id="paint4_linear_401_1781" x1="185.06" y1="192.215" x2="185.06" y2="258.936" gradientUnits="userSpaceOnUse">
<stop stop-color="white"/>
<stop offset="1" stop-color="#E2EDF2"/>
</linearGradient>
<linearGradient id="paint5_linear_401_1781" x1="219.626" y1="161.913" x2="165.275" y2="131.652" gradientUnits="userSpaceOnUse">
<stop stop-color="#FDC347"/>
<stop offset="1" stop-color="#F59500"/>
</linearGradient>
<linearGradient id="paint6_linear_401_1781" x1="176" y1="131.5" x2="192" y2="154" gradientUnits="userSpaceOnUse">
<stop stop-color="#FF7A7A"/>
<stop offset="1" stop-color="#F75900"/>
</linearGradient>
<linearGradient id="paint7_linear_401_1781" x1="236.232" y1="31.6999" x2="528.297" y2="57.9415" gradientUnits="userSpaceOnUse">
<stop stop-color="#FB3C00"/>
<stop offset="1" stop-color="#FFB800"/>
</linearGradient>
<linearGradient id="paint8_linear_401_1781" x1="635" y1="194" x2="635" y2="246" gradientUnits="userSpaceOnUse">
<stop stop-color="white"/>
<stop offset="0.71875" stop-color="#F0F0F0"/>
<stop offset="1" stop-color="#E0E0E0"/>
</linearGradient>
<linearGradient id="paint9_linear_401_1781" x1="658.415" y1="226.221" x2="639.477" y2="210.828" gradientUnits="userSpaceOnUse">
<stop stop-color="#FEFEFE" stop-opacity="0"/>
<stop offset="1" stop-color="#D7D7D7"/>
</linearGradient>
<linearGradient id="paint10_linear_401_1781" x1="620.478" y1="139.675" x2="662.491" y2="181.648" gradientUnits="userSpaceOnUse">
<stop stop-color="#FFC851"/>
<stop offset="1" stop-color="#FFAE00"/>
</linearGradient>
<linearGradient id="paint11_linear_401_1781" x1="644.472" y1="142.92" x2="617.045" y2="170.324" gradientUnits="userSpaceOnUse">
<stop stop-color="#FFCB5B"/>
<stop offset="1" stop-color="#FAAE0B"/>
</linearGradient>
<linearGradient id="paint12_linear_401_1781" x1="682.045" y1="31.6999" x2="905.685" y2="47.0345" gradientUnits="userSpaceOnUse">
<stop stop-color="#FB3C00"/>
<stop offset="1" stop-color="#FFB800"/>
</linearGradient>
<linearGradient id="paint13_linear_401_1781" x1="1025.82" y1="180.825" x2="1094.41" y2="249.418" gradientUnits="userSpaceOnUse">
<stop stop-color="white"/>
<stop offset="1" stop-color="#C3C3C3"/>
</linearGradient>
<linearGradient id="paint14_linear_401_1781" x1="1044.94" y1="180.347" x2="988.697" y2="174.097" gradientUnits="userSpaceOnUse">
<stop stop-color="#C3C3C3" stop-opacity="0"/>
<stop offset="0.267" stop-color="#A4A4A4" stop-opacity="0.267"/>
<stop offset="0.542" stop-color="#8B8B8B" stop-opacity="0.542"/>
<stop offset="0.794" stop-color="#7C7C7C" stop-opacity="0.794"/>
<stop offset="1" stop-color="#777777"/>
</linearGradient>
<linearGradient id="paint15_linear_401_1781" x1="1024" y1="177.533" x2="1024" y2="186.487" gradientUnits="userSpaceOnUse">
<stop stop-color="#F18D00"/>
<stop offset="1" stop-color="#ED7103"/>
</linearGradient>
<linearGradient id="paint16_linear_401_1781" x1="1020.95" y1="142.373" x2="1024.78" y2="148.423" gradientUnits="userSpaceOnUse">
<stop stop-color="#FF7A7A"/>
<stop offset="1" stop-color="#F75900"/>
</linearGradient>
<linearGradient id="paint17_linear_401_1781" x1="1020.95" y1="213.821" x2="1025.23" y2="220.065" gradientUnits="userSpaceOnUse">
<stop stop-color="#FF7A7A"/>
<stop offset="1" stop-color="#F75900"/>
</linearGradient>
<linearGradient id="paint18_linear_401_1781" x1="1048.46" y1="178.343" x2="1048.54" y2="180.457" gradientUnits="userSpaceOnUse">
<stop stop-color="#FF7A7A"/>
<stop offset="1" stop-color="#F75900"/>
</linearGradient>
<linearGradient id="paint19_linear_401_1781" x1="977.808" y1="178.343" x2="977.891" y2="180.456" gradientUnits="userSpaceOnUse">
<stop stop-color="#FF7A7A"/>
<stop offset="1" stop-color="#F75900"/>
</linearGradient>
<linearGradient id="paint20_linear_401_1781" x1="1040.51" y1="153.03" x2="1041.39" y2="159.253" gradientUnits="userSpaceOnUse">
<stop stop-color="#FF7A7A"/>
<stop offset="1" stop-color="#F75900"/>
</linearGradient>
<linearGradient id="paint21_linear_401_1781" x1="990.856" y1="203.477" x2="992.057" y2="210.322" gradientUnits="userSpaceOnUse">
<stop stop-color="#FF7A7A"/>
<stop offset="1" stop-color="#F75900"/>
</linearGradient>
<linearGradient id="paint22_linear_401_1781" x1="1040.51" y1="203.477" x2="1041.59" y2="210.361" gradientUnits="userSpaceOnUse">
<stop stop-color="#FF7A7A"/>
<stop offset="1" stop-color="#F75900"/>
</linearGradient>
<linearGradient id="paint23_linear_401_1781" x1="990.856" y1="153.03" x2="991.835" y2="159.225" gradientUnits="userSpaceOnUse">
<stop stop-color="#FF7A7A"/>
<stop offset="1" stop-color="#F75900"/>
</linearGradient>
<linearGradient id="paint24_linear_401_1781" x1="1044.34" y1="190.995" x2="1021.18" y2="165.85" gradientUnits="userSpaceOnUse">
<stop stop-color="#C3C3C3" stop-opacity="0"/>
<stop offset="0.267" stop-color="#A4A4A4" stop-opacity="0.267"/>
<stop offset="0.542" stop-color="#8B8B8B" stop-opacity="0.542"/>
<stop offset="0.794" stop-color="#7C7C7C" stop-opacity="0.794"/>
<stop offset="1" stop-color="#777777"/>
</linearGradient>
<linearGradient id="paint25_linear_401_1781" x1="1041.98" y1="177.548" x2="961.36" y2="184.987" gradientUnits="userSpaceOnUse">
<stop stop-color="#FFB92D"/>
<stop offset="1" stop-color="#F59500"/>
</linearGradient>
<linearGradient id="paint26_linear_401_1781" x1="1032.05" y1="194.357" x2="1039.72" y2="225.003" gradientUnits="userSpaceOnUse">
<stop stop-color="#FFB92D"/>
<stop offset="1" stop-color="#F59500"/>
</linearGradient>
<linearGradient id="paint27_linear_401_1781" x1="972.769" y1="130.183" x2="1071.74" y2="227.049" gradientUnits="userSpaceOnUse">
<stop stop-color="#FFCD61"/>
<stop offset="1" stop-color="#FFAE00"/>
</linearGradient>
<linearGradient id="paint28_linear_401_1781" x1="1069.9" y1="31.6999" x2="1320.23" y2="50.9363" gradientUnits="userSpaceOnUse">
<stop stop-color="#FB3C00"/>
<stop offset="1" stop-color="#FFB800"/>
</linearGradient>
<clipPath id="clip0_401_1781">
<rect width="136" height="136" fill="white" transform="translate(137 110)"/>
</clipPath>
</defs>
</svg>
